<?xml version="1.0" standalone="no"?>
<!DOCTYPE svg PUBLIC "-//W3C//DTD SVG 20010904//EN"
 "http://www.w3.org/TR/2001/REC-SVG-20010904/DTD/svg10.dtd">
<svg version="1.0" xmlns="http://www.w3.org/2000/svg"
 width="225.000000pt" height="225.000000pt" viewBox="0 0 225.000000 225.000000"
 preserveAspectRatio="xMidYMid meet">

<g transform="translate(0.000000,225.000000) scale(0.100000,-0.100000)"
fill="#000000" stroke="none">
<path d="M552 1922 c-2 -81 9 -101 23 -45 10 43 33 73 55 73 11 0 20 5 20 11
0 6 -9 8 -22 3 -31 -9 -46 -22 -55 -47 -6 -17 -9 -9 -14 33 -5 51 -6 49 -7
-28z"/>
<path d="M702 1925 c0 -27 3 -59 8 -70 11 -26 11 46 0 90 -7 26 -8 23 -8 -20z"/>
<path d="M797 1880 c4 -36 10 -76 14 -90 6 -21 7 -18 8 17 1 36 4 42 31 52 56
19 25 93 -37 88 -21 -1 -22 -4 -16 -67z m64 29 c12 -24 -1 -39 -33 -39 -13 0
-18 8 -18 30 0 23 4 30 20 30 10 0 24 -10 31 -21z"/>
<path d="M1854 1550 c-12 -5 -25 -13 -29 -19 -8 -14 1 -14 24 -1 17 8 18 1 24
-102 5 -74 3 -125 -5 -150 -8 -27 -8 -42 -1 -49 8 -8 13 -7 17 0 4 6 3 11 -2
11 -5 0 -7 14 -4 30 4 31 20 38 40 18 19 -19 14 1 -7 28 -24 30 -39 190 -22
223 13 23 3 27 -35 11z"/>
<path d="M1785 1477 c-9 -22 -15 -67 -15 -115 0 -95 12 -114 97 -162 36 -21
103 -78 176 -152 103 -106 117 -123 117 -154 0 -19 -5 -34 -11 -34 -6 0 -30
16 -53 35 -47 38 -171 99 -189 92 -7 -3 -3 -8 8 -12 71 -26 146 -68 187 -104
l47 -41 15 22 c28 39 19 64 -49 142 -86 98 -178 181 -243 218 -84 48 -95 68
-89 164 2 44 10 91 17 103 6 13 9 25 6 28 -3 4 -13 -10 -21 -30z"/>
<path d="M1830 1425 c0 -8 2 -15 4 -15 2 0 6 7 10 15 3 8 1 15 -4 15 -6 0 -10
-7 -10 -15z"/>
<path d="M1842 1333 c-5 -16 -13 -36 -17 -45 -4 -10 -3 -18 2 -18 5 0 15 17
23 38 8 20 16 40 18 45 2 4 -1 7 -6 7 -6 0 -15 -12 -20 -27z"/>
<path d="M1952 1249 c-1 -26 1 -29 11 -16 11 14 21 10 84 -27 85 -49 114 -75
155 -136 29 -43 30 -48 24 -118 -3 -40 -13 -86 -21 -102 -9 -17 -11 -30 -6
-30 17 0 40 79 42 147 2 63 0 72 -34 123 -36 54 -85 92 -208 163 l-46 26 -1
-30z"/>
<path d="M1950 1202 c0 -12 19 -26 26 -19 2 2 -2 10 -11 17 -9 8 -15 8 -15 2z"/>
<path d="M2047 1183 c-4 -3 -7 -18 -6 -32 1 -26 1 -25 10 3 9 31 7 41 -4 29z"/>
<path d="M1189 1150 c-70 -19 -130 -88 -128 -149 l1 -36 9 38 c17 72 86 137
145 137 98 -1 204 -115 204 -220 0 -32 -7 -48 -35 -79 -43 -47 -123 -84 -161
-75 -19 5 -25 4 -20 -5 11 -17 65 -13 112 10 50 24 111 87 120 125 15 59 -60
199 -126 234 -31 16 -94 27 -121 20z"/>
<path d="M2131 1114 c0 -11 3 -14 6 -6 3 7 2 16 -1 19 -3 4 -6 -2 -5 -13z"/>
<path d="M782 1104 c-109 -28 -132 -56 -132 -160 0 -46 4 -55 31 -78 44 -38
59 -32 18 7 -35 32 -35 32 -29 99 6 76 15 87 89 113 76 26 112 19 130 -25 9
-22 10 -23 10 -4 2 50 -40 67 -117 48z"/>
<path d="M1550 1092 c-79 -53 -121 -85 -116 -89 3 -3 19 5 35 17 17 12 31 16
31 10 0 -13 81 -8 120 8 40 16 170 26 170 13 0 -6 16 -11 35 -11 19 0 35 -4
35 -9 0 -5 9 -11 21 -14 15 -4 19 -2 15 9 -3 8 -1 14 4 14 6 0 10 5 10 11 0 6
-18 9 -45 8 -24 -2 -47 0 -51 4 -13 13 -161 7 -204 -8 -23 -8 -52 -15 -64 -15
-17 0 -14 5 17 25 37 26 48 46 25 44 -7 0 -24 -8 -38 -17z"/>
<path d="M2133 1035 c2 -5 10 -10 17 -10 7 0 15 5 17 10 2 6 -6 11 -17 11 -11
0 -19 -5 -17 -11z"/>
<path d="M2172 1000 c-5 -23 -6 -40 -1 -40 5 0 9 9 9 21 0 11 5 29 10 40 6 10
7 19 2 19 -5 0 -14 -18 -20 -40z"/>
<path d="M893 1015 c-11 -8 -34 -15 -53 -17 -39 -3 -51 -23 -21 -33 26 -8 27
-31 4 -44 -10 -5 -15 -13 -11 -16 9 -9 26 2 38 25 8 15 6 23 -10 38 l-21 19
28 2 c15 0 52 1 82 1 30 0 52 2 50 4 -2 1 -18 10 -36 18 -26 13 -35 14 -50 3z"/>
<path d="M1260 940 c-17 -22 -30 -45 -28 -51 2 -6 17 7 32 30 16 23 33 41 37
41 17 0 9 -24 -18 -52 -21 -22 -23 -28 -10 -28 27 0 20 -16 -13 -30 -16 -7
-30 -16 -30 -21 0 -5 18 0 40 11 40 21 49 33 29 45 -7 5 -5 13 6 25 18 20 17
61 -1 67 -7 2 -26 -14 -44 -37z"/>
<path d="M735 834 c-31 -40 -55 -62 -64 -59 -8 3 -11 0 -8 -9 4 -9 -2 -17 -14
-21 -10 -4 -19 -11 -19 -16 0 -6 6 -7 13 -3 15 10 -10 -25 -32 -43 -20 -17
-70 -16 -101 2 -36 20 -60 19 -60 -4 0 -30 38 -51 90 -50 l45 1 -45 10 c-53
11 -72 20 -78 36 -2 7 18 3 52 -9 31 -10 63 -19 72 -19 9 0 34 19 56 43 37 40
39 41 53 23 13 -17 15 -17 15 -4 0 9 -5 20 -11 24 -8 4 -4 13 12 25 14 11 18
19 11 19 -8 0 4 22 28 50 23 27 40 54 38 59 -1 5 -25 -20 -53 -55z"/>
<path d="M1804 854 c-31 -15 -74 -77 -62 -89 3 -4 16 -2 27 5 18 9 21 8 21
-10 0 -13 6 -20 18 -19 10 0 12 3 5 6 -8 3 -11 14 -7 28 6 24 -10 43 -21 25
-3 -5 -11 -10 -17 -10 -7 0 1 14 17 30 16 17 39 30 52 30 13 0 23 5 23 10 0
14 -20 12 -56 -6z"/>
<path d="M2179 794 c12 -15 21 -33 21 -41 0 -23 -66 -147 -92 -170 -30 -28
-89 -53 -127 -53 -19 0 -40 -9 -54 -24 -52 -52 -212 -62 -249 -16 -10 12 -16
25 -13 29 2 5 44 23 92 42 48 18 81 35 72 37 -18 3 -208 -74 -228 -93 -7 -7
-11 -18 -7 -23 10 -16 100 -32 184 -32 66 0 86 4 141 31 62 30 67 31 160 26
60 -4 89 -3 76 3 -11 5 -42 9 -70 10 l-50 1 30 16 c17 8 43 27 59 42 34 31 86
135 86 171 0 28 -25 70 -41 70 -6 0 -1 -12 10 -26z m-519 -304 c10 -19 9 -20
-17 -14 -35 8 -37 10 -28 23 10 18 33 13 45 -9z"/>
<path d="M890 764 c0 -3 14 -10 32 -16 27 -10 29 -12 15 -23 -26 -19 -20 -24
12 -12 22 8 39 8 65 0 20 -6 36 -8 36 -3 0 4 -12 11 -27 15 l-28 7 28 15 c39
20 28 27 -14 9 -29 -12 -39 -12 -68 0 -35 15 -51 17 -51 8z"/>
<path d="M1840 705 c0 -19 5 -35 10 -35 6 0 10 16 10 35 0 19 -4 35 -10 35 -5
0 -10 -16 -10 -35z"/>
<path d="M1329 656 c-51 -31 -60 -33 -154 -35 -55 -1 -104 -7 -110 -13 -7 -7
22 -8 90 -3 l100 7 -29 -24 c-96 -80 90 -93 224 -16 47 27 66 32 130 34 41 1
116 6 165 11 l90 8 -70 8 c-100 10 -205 9 -205 -3 0 -5 -8 -10 -17 -10 -15 0
-13 4 7 20 14 10 22 22 18 25 -4 4 -33 -13 -65 -38 -32 -25 -71 -52 -88 -60
-44 -22 -105 -37 -105 -26 0 5 -14 18 -31 28 l-30 18 68 43 c79 50 78 49 72
55 -3 2 -30 -10 -60 -29z m-34 -116 c7 -11 -43 -14 -69 -4 -12 5 -13 10 -5 25
9 18 12 18 39 4 16 -8 32 -19 35 -25z"/>
<path d="M1860 620 c12 -16 26 -30 31 -30 6 0 1 14 -11 30 -12 17 -26 30 -31
30 -6 0 -1 -13 11 -30z"/>
<path d="M660 628 c31 -9 33 -11 15 -21 -18 -10 -160 -5 -521 20 -49 3 -86 2
-82 -2 4 -4 132 -16 285 -26 153 -10 294 -23 313 -29 40 -12 114 -4 129 14 8
9 -4 11 -52 9 -59 -4 -61 -3 -42 12 15 13 32 15 70 11 28 -3 60 -6 71 -6 13 0
24 -8 27 -20 7 -26 39 -26 62 0 12 13 32 21 59 22 37 1 38 2 9 5 -18 2 -33 9
-33 14 0 5 -8 4 -19 -2 -14 -9 -51 -9 -152 0 -158 13 -187 13 -139 -1z m270
-23 c0 -2 -9 -9 -20 -15 -16 -9 -20 -8 -20 5 0 8 9 15 20 15 11 0 20 -2 20 -5z"/>
<path d="M620 534 c-8 -1 -54 -6 -102 -9 -49 -4 -88 -10 -88 -13 0 -11 362 -2
379 9 11 7 -8 9 -66 6 -46 -3 -86 -1 -89 4 -5 9 -7 9 -34 3z"/>
<path d="M905 530 c109 -12 245 -11 245 0 0 6 -58 9 -157 8 -129 -1 -145 -2
-88 -8z"/>
<path d="M850 487 c-36 -6 -57 -12 -46 -15 28 -6 126 8 126 19 0 5 -3 8 -7 8
-5 -1 -37 -6 -73 -12z"/>
<path d="M1010 490 c-45 -7 -44 -7 18 -8 36 -1 62 2 62 8 0 11 -11 11 -80 0z"/>
</g>
</svg>
